<?xml version="1.0" encoding="utf-8"?>
<!-- Generator: Adobe Illustrator 27.5.0, SVG Export Plug-In . SVG Version: 6.00 Build 0)  -->
<svg version="1.1" xmlns="http://www.w3.org/2000/svg" xmlns:xlink="http://www.w3.org/1999/xlink" x="0px" y="0px"
	 viewBox="0 0 750 500" style="enable-background:new 0 0 750 500;" xml:space="preserve">
<g id="BACKGROUND">
	<g>
		<rect style="fill:#D6DEE5;" width="750" height="500"/>
		<rect y="343.282" style="opacity:0.15;fill:#989FA5;" width="750" height="156.523"/>
	</g>
	
		<radialGradient id="SVGID_1_" cx="1123.649" cy="-6020.2817" r="221.1629" gradientTransform="matrix(0.2059 0 0 0.0111 5.3065 533.0362)" gradientUnits="userSpaceOnUse">
		<stop  offset="0" style="stop-color:#323547"/>
		<stop  offset="0.1968" style="stop-color:#35384A;stop-opacity:0.8032"/>
		<stop  offset="0.3424" style="stop-color:#3E4153;stop-opacity:0.6576"/>
		<stop  offset="0.4716" style="stop-color:#4E5161;stop-opacity:0.5284"/>
		<stop  offset="0.5913" style="stop-color:#656776;stop-opacity:0.4087"/>
		<stop  offset="0.7044" style="stop-color:#828491;stop-opacity:0.2956"/>
		<stop  offset="0.8126" style="stop-color:#A6A7B3;stop-opacity:0.1874"/>
		<stop  offset="0.9149" style="stop-color:#D0D0D9;stop-opacity:0.0851"/>
		<stop  offset="1" style="stop-color:#F9F8FF;stop-opacity:0"/>
	</radialGradient>
	<ellipse style="opacity:0.15;fill:url(#SVGID_1_);" cx="236.666" cy="466.075" rx="45.58" ry="3.873"/>
</g>
<g id="OBJECTS">
	<g>
		
			<radialGradient id="SVGID_00000059302809096258849680000003046774665395776444_" cx="6197.5439" cy="13425.5107" r="245.301" gradientTransform="matrix(0.333 0 0 -0.0201 -1708.8181 677.2906)" gradientUnits="userSpaceOnUse">
			<stop  offset="0" style="stop-color:#323547"/>
			<stop  offset="0.1968" style="stop-color:#35384A;stop-opacity:0.8032"/>
			<stop  offset="0.3424" style="stop-color:#3E4153;stop-opacity:0.6576"/>
			<stop  offset="0.4716" style="stop-color:#4E5161;stop-opacity:0.5284"/>
			<stop  offset="0.5913" style="stop-color:#656776;stop-opacity:0.4087"/>
			<stop  offset="0.7044" style="stop-color:#828491;stop-opacity:0.2956"/>
			<stop  offset="0.8126" style="stop-color:#A6A7B3;stop-opacity:0.1874"/>
			<stop  offset="0.9149" style="stop-color:#D0D0D9;stop-opacity:0.0851"/>
			<stop  offset="1" style="stop-color:#F9F8FF;stop-opacity:0"/>
		</radialGradient>
		<path style="opacity:0.4;fill:url(#SVGID_00000059302809096258849680000003046774665395776444_);" d="M436.726,407.213
			c0-1.914-36.606-3.465-81.762-3.465c-45.156,0-81.762,1.551-81.762,3.465c0,1.914,36.606,3.465,81.762,3.465
			C400.12,410.678,436.726,409.127,436.726,407.213z"/>
		<g>
			
				<linearGradient id="SVGID_00000117663837278036528600000005361137373815571902_" gradientUnits="userSpaceOnUse" x1="286.78" y1="406.744" x2="426.1754" y2="406.744">
				<stop  offset="0" style="stop-color:#79787D"/>
				<stop  offset="0.4938" style="stop-color:#E6E6E6"/>
				<stop  offset="0.8598" style="stop-color:#8F9194"/>
				<stop  offset="1" style="stop-color:#565761"/>
			</linearGradient>
			<path style="fill:url(#SVGID_00000117663837278036528600000005361137373815571902_);" d="M424.392,408.527H288.563
				c-0.985,0-1.783-0.798-1.783-1.783l0,0c0-0.985,0.798-1.783,1.783-1.783h135.829c0.985,0,1.783,0.798,1.783,1.783l0,0
				C426.175,407.729,425.377,408.527,424.392,408.527z"/>
			
				<linearGradient id="SVGID_00000057851891698955746910000008594070508070455699_" gradientUnits="userSpaceOnUse" x1="352.657" y1="405.7957" x2="352.657" y2="348.0239">
				<stop  offset="0" style="stop-color:#79787D"/>
				<stop  offset="0.0822" style="stop-color:#7C7C80"/>
				<stop  offset="0.5541" style="stop-color:#8A8B8F"/>
				<stop  offset="0.9233" style="stop-color:#8F9194"/>
				<stop  offset="1" style="stop-color:#565761"/>
			</linearGradient>
			
				<rect x="326.506" y="354.895" style="fill:url(#SVGID_00000057851891698955746910000008594070508070455699_);" width="52.302" height="50.066"/>
			<path style="fill:#C1C2C7;" d="M128.845,324.301V63.027c0-8.252,6.714-14.967,14.967-14.967h425.332
				c8.252,0,14.966,6.715,14.966,14.967v261.273H128.845z"/>
			<path style="fill:#040205;" d="M583.316,323.506H129.639V63.027c0-7.827,6.345-14.172,14.172-14.172h425.332
				c7.827,0,14.172,6.345,14.172,14.172V323.506z"/>
			<g>
				
					<linearGradient id="SVGID_00000098198030834044749150000012354900979956725120_" gradientUnits="userSpaceOnUse" x1="356.4777" y1="354.8947" x2="356.4777" y2="326.3663">
					<stop  offset="0" style="stop-color:#AFAEB3"/>
					<stop  offset="0.9947" style="stop-color:#D0D1D6"/>
				</linearGradient>
				<path style="fill:url(#SVGID_00000098198030834044749150000012354900979956725120_);" d="M580.622,354.895H132.333
					c-1.926,0-3.488-1.562-3.488-3.488v-30.025H584.11v30.025C584.11,353.333,582.549,354.895,580.622,354.895z"/>
				
					<linearGradient id="SVGID_00000178893940107160087730000006204091395476662705_" gradientUnits="userSpaceOnUse" x1="356.4778" y1="354.986" x2="356.4778" y2="348.6666">
					<stop  offset="0" style="stop-color:#79787D"/>
					<stop  offset="0.0822" style="stop-color:#7C7C80"/>
					<stop  offset="0.5541" style="stop-color:#8A8B8F"/>
					<stop  offset="0.9233" style="stop-color:#8F9194"/>
					<stop  offset="1" style="stop-color:#565761"/>
				</linearGradient>
				<path style="opacity:0.15;fill:url(#SVGID_00000178893940107160087730000006204091395476662705_);" d="M128.845,349.418v1.988
					c0,1.926,1.562,3.488,3.488,3.488h448.289c1.927,0,3.488-1.562,3.488-3.488v-1.988H128.845z"/>
				
					<line style="fill:none;stroke:#FFFFFF;stroke-width:0.5519;stroke-miterlimit:10;" x1="128.845" y1="321.381" x2="584.11" y2="321.381"/>
			</g>
		</g>
	</g>
	<g>
		<defs>
			<path id="SVGID_00000039813239472184697250000006700059404247182256_" d="M580.221,321.381H132.734V64.969
				c0-7.713,6.253-13.965,13.965-13.965h419.556c7.713,0,13.965,6.253,13.965,13.965V321.381z"/>
		</defs>
		<clipPath id="SVGID_00000046304708507338858200000007939426496423077015_">
			<use xlink:href="#SVGID_00000039813239472184697250000006700059404247182256_"  style="overflow:visible;"/>
		</clipPath>
		<g style="clip-path:url(#SVGID_00000046304708507338858200000007939426496423077015_);">
			<rect x="105.753" y="55.105" style="fill:#FFFFFF;" width="507.857" height="321.19"/>
			<rect x="104.522" y="25.437" width="507.857" height="150.723"/>
			<polygon style="fill:#D2FDDF;" points="486.594,55.567 417.232,55.567 354.585,165.142 371.147,176.16 602.857,176.16 			"/>
			<g>
				
					<text transform="matrix(1 0 0 1 292.244 200.9667)" style="fill:#2A2827; font-family:'PlusJakartaSansRoman-Bold'; font-size:10.1483px; letter-spacing:1;">Choose the right plan</text>
			</g>
			<path style="fill:#FFFFFF;" d="M390.009,84.91c-4.189,0-5.769,1.778-5.769,6.491c0-4.713-1.58-6.491-5.769-6.491
				c4.189,0,5.769-1.778,5.769-6.491C384.24,83.132,385.82,84.91,390.009,84.91z"/>
			<path d="M508.509,135.004c-4.189,0-5.769,1.778-5.769,6.491c0-4.713-1.58-6.491-5.769-6.491c4.189,0,5.769-1.778,5.769-6.491
				C502.74,133.226,504.32,135.004,508.509,135.004z"/>
			<g>
				<path style="fill:#DCC8F9;" d="M278.045,63.805c0,1.181-0.958,2.139-2.139,2.139c-1.181,0-2.139-0.958-2.139-2.139
					c0-1.181,0.958-2.139,2.139-2.139C277.088,61.666,278.045,62.623,278.045,63.805z"/>
				<path style="fill:#D2FDDF;" d="M281.326,63.805c0,1.181-0.958,2.139-2.139,2.139c-1.181,0-2.139-0.958-2.139-2.139
					c0-1.181,0.958-2.139,2.139-2.139C280.368,61.666,281.326,62.623,281.326,63.805z"/>
			</g>
			<path style="fill:none;stroke:#141414;stroke-width:0.323;stroke-miterlimit:10;" d="M486.631,66.473h-14.552
				c-1.474,0-2.668-1.195-2.668-2.668l0,0c0-1.474,1.195-2.668,2.668-2.668h14.552c1.474,0,2.668,1.195,2.668,2.668l0,0
				C489.299,65.279,488.104,66.473,486.631,66.473z"/>
			
				<line style="fill:none;stroke:#DCC8F9;stroke-width:0.323;stroke-miterlimit:10;" x1="295.104" y1="154.947" x2="338.234" y2="154.947"/>
			<path style="fill:#DCC8F9;" d="M279.508,157.689h-28.977c-2.935,0-5.314-2.379-5.314-5.314l0,0c0-2.935,2.379-5.314,5.314-5.314
				h28.977c2.935,0,5.314,2.379,5.314,5.314l0,0C284.821,155.31,282.442,157.689,279.508,157.689z"/>
			<path style="fill:#DCC8F9;" d="M342.845,151.549l-2.086-1.204c-0.29-0.168-0.654,0.042-0.654,0.377v2.409
				c0,0.335,0.363,0.545,0.654,0.377l2.086-1.204C343.136,152.136,343.136,151.717,342.845,151.549z"/>
			<path style="fill:#DCC8F9;" d="M405.036,325.543h-71.93c-0.339,0-0.615-0.275-0.615-0.614V216.314
				c0-0.339,0.275-0.615,0.615-0.615h71.93c0.339,0,0.614,0.275,0.614,0.615v108.615
				C405.65,325.268,405.375,325.543,405.036,325.543z"/>
			<g>
				<path d="M354.875,227.039h-13.581c-1.759,0-3.185-1.426-3.185-3.185l0,0c0-1.759,1.426-3.185,3.185-3.185h13.581
					c1.759,0,3.185,1.426,3.185,3.185l0,0C358.061,225.613,356.634,227.039,354.875,227.039z"/>
			</g>
			<g>
				<circle style="fill:#FFFFFF;" cx="343.556" cy="267.569" r="2.683"/>
				<path style="fill:none;stroke:#000000;stroke-width:0.6314;stroke-linecap:round;stroke-miterlimit:10;" d="M341.721,266.095
					c-0.178,0.024,0.738,1.474,1.275,2.299c0.164,0.252,0.536,0.229,0.674-0.038l1.743-3.387"/>
			</g>
			<g>
				<path style="fill:#FFFFFF;" d="M346.239,281.514c0,1.482-1.201,2.683-2.683,2.683c-1.482,0-2.683-1.201-2.683-2.683
					c0-1.482,1.201-2.683,2.683-2.683C345.037,278.831,346.239,280.032,346.239,281.514z"/>
				<path style="fill:none;stroke:#000000;stroke-width:0.6314;stroke-linecap:round;stroke-miterlimit:10;" d="M341.721,280.04
					c-0.178,0.024,0.738,1.475,1.275,2.299c0.164,0.252,0.536,0.229,0.674-0.038l1.743-3.387"/>
			</g>
			<g>
				<circle style="fill:#FFFFFF;" cx="343.556" cy="295.459" r="2.683"/>
				<path style="fill:none;stroke:#000000;stroke-width:0.6314;stroke-linecap:round;stroke-miterlimit:10;" d="M341.721,293.985
					c-0.178,0.024,0.738,1.474,1.275,2.299c0.164,0.252,0.536,0.229,0.674-0.038l1.743-3.387"/>
			</g>
			<g>
				<path style="fill:#FFFFFF;" d="M346.239,309.404c0,1.482-1.201,2.683-2.683,2.683c-1.482,0-2.683-1.201-2.683-2.683
					c0-1.482,1.201-2.683,2.683-2.683C345.037,306.721,346.239,307.922,346.239,309.404z"/>
				<path style="fill:none;stroke:#000000;stroke-width:0.6314;stroke-linecap:round;stroke-miterlimit:10;" d="M341.721,307.93
					c-0.178,0.024,0.738,1.474,1.275,2.299c0.164,0.252,0.536,0.229,0.674-0.038l1.743-3.387"/>
			</g>
			<path style="fill:none;stroke:#000000;stroke-width:0.323;stroke-linecap:round;stroke-miterlimit:10;" d="M336.356,253.733
				c0.398,0,65.722,0,65.722,0"/>
			<path style="fill:#DFE5E4;" d="M492.31,325.543h-71.93c-0.339,0-0.615-0.275-0.615-0.614V216.314
				c0-0.339,0.275-0.615,0.615-0.615h71.93c0.339,0,0.615,0.275,0.615,0.615v108.615C492.925,325.268,492.65,325.543,492.31,325.543
				z"/>
			<g>
				<path d="M446.378,227.039h-13.581c-1.759,0-3.185-1.426-3.185-3.185l0,0c0-1.759,1.426-3.185,3.185-3.185h13.581
					c1.759,0,3.185,1.426,3.185,3.185l0,0C449.563,225.613,448.137,227.039,446.378,227.039z"/>
			</g>
			<g>
				<path style="fill:#FFFFFF;" d="M436.532,266.322c0,1.482-1.201,2.683-2.683,2.683c-1.482,0-2.683-1.201-2.683-2.683
					c0-1.482,1.201-2.683,2.683-2.683C435.331,263.639,436.532,264.841,436.532,266.322z"/>
				<path style="fill:none;stroke:#000000;stroke-width:0.6314;stroke-linecap:round;stroke-miterlimit:10;" d="M432.015,264.848
					c-0.178,0.024,0.738,1.475,1.274,2.299c0.164,0.252,0.536,0.229,0.674-0.038l1.743-3.387"/>
			</g>
			<g>
				<path style="fill:#FFFFFF;" d="M436.532,280.267c0,1.482-1.201,2.683-2.683,2.683c-1.482,0-2.683-1.201-2.683-2.683
					c0-1.482,1.201-2.683,2.683-2.683C435.331,277.584,436.532,278.785,436.532,280.267z"/>
				<path style="fill:none;stroke:#000000;stroke-width:0.6314;stroke-linecap:round;stroke-miterlimit:10;" d="M432.015,278.793
					c-0.178,0.024,0.738,1.474,1.274,2.299c0.164,0.252,0.536,0.229,0.674-0.038l1.743-3.387"/>
			</g>
			<g>
				<path style="fill:#FFFFFF;" d="M436.532,294.212c0,1.482-1.201,2.683-2.683,2.683c-1.482,0-2.683-1.201-2.683-2.683
					s1.201-2.683,2.683-2.683C435.331,291.529,436.532,292.73,436.532,294.212z"/>
				<path style="fill:none;stroke:#000000;stroke-width:0.6314;stroke-linecap:round;stroke-miterlimit:10;" d="M432.015,292.738
					c-0.178,0.024,0.738,1.475,1.274,2.299c0.164,0.252,0.536,0.229,0.674-0.038l1.743-3.387"/>
			</g>
			<g>
				<path style="fill:#FFFFFF;" d="M436.532,308.157c0,1.482-1.201,2.683-2.683,2.683c-1.482,0-2.683-1.201-2.683-2.683
					c0-1.482,1.201-2.683,2.683-2.683C435.331,305.474,436.532,306.675,436.532,308.157z"/>
				<path style="fill:none;stroke:#000000;stroke-width:0.6314;stroke-linecap:round;stroke-miterlimit:10;" d="M432.015,306.683
					c-0.178,0.024,0.738,1.475,1.274,2.299c0.164,0.252,0.536,0.229,0.674-0.038l1.743-3.387"/>
			</g>
			<path style="fill:none;stroke:#000000;stroke-width:0.2826;stroke-linecap:round;stroke-miterlimit:10;" d="M429.611,253.793
				c0.304,0,50.321,0,50.321,0"/>
			<path style="fill:#F0F7F6;" d="M317.761,325.543h-71.93c-0.339,0-0.615-0.275-0.615-0.614V216.314
				c0-0.339,0.275-0.615,0.615-0.615h71.93c0.339,0,0.614,0.275,0.614,0.615v108.615C318.376,325.268,318.1,325.543,317.761,325.543
				z"/>
			<g>
				<path d="M268.651,227.039h-12.45c-1.699,0-3.076-1.377-3.076-3.076v-0.219c0-1.699,1.377-3.076,3.076-3.076h12.45
					c1.699,0,3.076,1.377,3.076,3.076v0.219C271.727,225.662,270.35,227.039,268.651,227.039z"/>
			</g>
			<path style="fill:none;stroke:#000000;stroke-width:0.2886;stroke-linecap:round;stroke-miterlimit:10;" d="M251.984,253.793
				c0.317,0,52.474,0,52.474,0"/>
			<g>
				<path style="fill:#FFFFFF;" d="M258.492,263.716c0,1.482-1.201,2.683-2.683,2.683s-2.683-1.201-2.683-2.683
					c0-1.482,1.201-2.683,2.683-2.683S258.492,262.234,258.492,263.716z"/>
				<path style="fill:none;stroke:#000000;stroke-width:0.6314;stroke-linecap:round;stroke-miterlimit:10;" d="M253.975,262.242
					c-0.178,0.024,0.738,1.474,1.274,2.299c0.164,0.252,0.536,0.229,0.674-0.038l1.743-3.387"/>
			</g>
			<g>
				<circle style="fill:#FFFFFF;" cx="255.809" cy="277.661" r="2.683"/>
				<path style="fill:none;stroke:#000000;stroke-width:0.6314;stroke-linecap:round;stroke-miterlimit:10;" d="M253.975,276.187
					c-0.178,0.024,0.738,1.475,1.274,2.299c0.164,0.252,0.536,0.229,0.674-0.038l1.743-3.387"/>
			</g>
			<g>
				<path style="fill:#141414;" d="M399.191,145.249c4.89,0,10.285-4.303,12.026-9.593l14.34-43.557
					c1.661-5.044,6.782-9.148,11.414-9.148c1.986,0,3.642,0.775,4.66,2.183c1.226,1.696,1.438,4.161,0.582,6.764l-14.146,43.556
					c-0.923,2.801-0.677,5.478,0.673,7.344c1.143,1.58,2.984,2.45,5.183,2.45c4.891,0,10.286-4.303,12.027-9.593l14.34-43.557
					c1.661-5.044,6.781-9.148,11.413-9.148c1.986,0,3.642,0.775,4.66,2.183c1.226,1.696,1.438,4.161,0.582,6.764l-14.145,43.556
					c-0.922,2.801-0.677,5.478,0.673,7.344c1.143,1.58,2.984,2.45,5.183,2.45c4.89,0,10.285-4.303,12.026-9.593l14.341-43.557
					c1.661-5.044,6.781-9.148,11.413-9.148c0.302,0,0.594,0.024,0.88,0.06v-0.653c-0.287-0.032-0.579-0.052-0.88-0.052
					c-4.89,0-10.285,4.303-12.027,9.592l-14.341,43.557c-1.661,5.045-6.781,9.149-11.413,9.149c-1.986,0-3.642-0.775-4.66-2.183
					c-1.226-1.696-1.44-4.161-0.582-6.765l14.145-43.556c0.922-2.8,0.677-5.477-0.673-7.344c-1.143-1.58-2.984-2.45-5.183-2.45
					c-4.89,0-10.285,4.303-12.026,9.592l-14.34,43.557c-1.661,5.045-6.781,9.149-11.414,9.149c-1.987,0-3.642-0.775-4.66-2.183
					c-1.226-1.696-1.44-4.161-0.582-6.765l14.146-43.556c0.922-2.8,0.678-5.477-0.673-7.344c-1.143-1.58-2.984-2.45-5.183-2.45
					c-4.89,0-10.285,4.303-12.027,9.592l-14.34,43.557c-1.661,5.045-6.781,9.149-11.413,9.149c-1.986,0-3.642-0.775-4.66-2.183
					c-1.226-1.696-1.44-4.161-0.582-6.765l14.145-43.556c0.923-2.801,0.678-5.478-0.673-7.344c-1.143-1.58-2.984-2.45-5.183-2.45
					c-0.099,0-0.2,0.013-0.3,0.016l-0.381,0.667c0.228-0.019,0.456-0.037,0.681-0.037c1.987,0,3.642,0.775,4.661,2.183
					c1.226,1.696,1.439,4.161,0.582,6.764l-14.145,43.556c-0.923,2.801-0.677,5.478,0.673,7.344
					C395.15,144.378,396.992,145.249,399.191,145.249z"/>
			</g>
			<g>
				<rect x="474.083" y="77.475" style="fill:#DCC8F9;" width="2.924" height="7.718"/>
				<rect x="474.083" y="92.894" style="fill:#DCC8F9;" width="2.924" height="7.718"/>
				<rect x="477.008" y="85.115" width="2.924" height="7.718"/>
				<rect x="479.932" y="77.475" width="2.924" height="7.718"/>
				<rect x="479.932" y="92.894" width="2.924" height="7.718"/>
				<rect x="482.856" y="85.115" style="fill:#DCC8F9;" width="2.924" height="7.718"/>
			</g>
			<polygon style="fill:#DCC8F9;" points="433.185,131.265 444.462,103.525 419.101,119.447 409.908,90.948 400.715,119.447 
				375.355,103.525 386.631,131.265 356.969,135.369 383.439,149.371 363.354,171.582 392.631,165.294 392.229,176.16 
				406.347,176.16 409.908,171.582 413.47,176.16 427.588,176.16 427.185,165.294 456.462,171.582 436.378,149.371 462.848,135.369 
							"/>
			<g>
				<g>
					<polygon points="471.133,167.475 477.375,167.475 471.339,161.145 471.133,161.145 					"/>
					<polygon style="fill:#DCC8F9;" points="477.463,167.475 477.463,161.145 471.339,161.145 477.375,167.475 					"/>
				</g>
				<g>
					<polygon points="477.331,161.277 483.574,161.277 477.537,154.947 477.331,154.947 					"/>
					<polygon style="fill:#DCC8F9;" points="483.661,161.277 483.661,154.947 477.537,154.947 483.574,161.277 					"/>
				</g>
			</g>
			<g>
				<path style="fill:none;stroke:#141414;stroke-width:1.2919;stroke-miterlimit:10;" d="M449.598,103.418h3.998
					c2.814,0,5.102,2.283,5.102,5.102v30.03c0,2.814-2.288,5.102-5.102,5.102h-51.31c-2.819,0-5.102-2.288-5.102-5.102v-30.03
					c0-2.819,2.283-5.102,5.102-5.102h25.468H449.598z"/>
				
					<line style="fill:none;stroke:#141414;stroke-width:1.2919;stroke-miterlimit:10;" x1="397.184" y1="136.456" x2="458.696" y2="136.456"/>
				
					<line style="fill:none;stroke:#141414;stroke-width:1.2919;stroke-miterlimit:10;" x1="423.519" y1="143.649" x2="421.38" y2="154.946"/>
				
					<line style="fill:none;stroke:#141414;stroke-width:1.2919;stroke-miterlimit:10;" x1="434.243" y1="143.649" x2="436.382" y2="154.946"/>
				
					<line style="fill:none;stroke:#141414;stroke-width:1.2919;stroke-miterlimit:10;" x1="416.425" y1="154.946" x2="441.751" y2="154.946"/>
				<g>
					<path style="fill:none;stroke:#141414;stroke-width:1.2919;stroke-miterlimit:10;" d="M422.519,128.964l0.952,0.721
						c0.169,0.128,0.411,0.094,0.538-0.076l2.436-3.232c0.13-0.174,0.379-0.206,0.548-0.069l1.347,1.089
						c0.237,0.192,0.593,0.042,0.622-0.262l0.657-7.003c0.036-0.38-0.517-0.802-0.875-0.667l-6.581,2.483
						c-0.286,0.108-0.336,0.491-0.088,0.669l1.406,1.011c0.176,0.127,0.212,0.375,0.078,0.546l-2.474,3.203
						c-0.131,0.168-0.1,0.41,0.068,0.539l0.947,0.728L422.519,128.964z"/>
					
						<line style="fill:none;stroke:#141414;stroke-width:1.2919;stroke-linecap:round;stroke-miterlimit:10;" x1="430.982" y1="117.799" x2="433.375" y2="114.838"/>
					
						<line style="fill:none;stroke:#141414;stroke-width:1.2919;stroke-linecap:round;stroke-miterlimit:10;" x1="428.048" y1="117.412" x2="427.757" y2="114.57"/>
					
						<line style="fill:none;stroke:#141414;stroke-width:1.2919;stroke-linecap:round;stroke-miterlimit:10;" x1="431.838" y1="120.254" x2="434.243" y2="120.254"/>
				</g>
			</g>
		</g>
	</g>
	
		<linearGradient id="SVGID_00000150075575284130077910000004207494827234437788_" gradientUnits="userSpaceOnUse" x1="-154.941" y1="-145.4814" x2="229.6737" y2="161.5953">
		<stop  offset="0" style="stop-color:#FFFFFF"/>
		<stop  offset="0.7176" style="stop-color:#FCFCFF;stop-opacity:0.2824"/>
		<stop  offset="1" style="stop-color:#F9F8FF;stop-opacity:0"/>
	</linearGradient>
	<path style="fill:url(#SVGID_00000150075575284130077910000004207494827234437788_);" d="M305.507,51.905h-158.84
		c-7.713,0-13.965,6.252-13.965,13.965V254.41C189.64,187.839,273.853,89.048,305.507,51.905z"/>
	
		<radialGradient id="SVGID_00000013194747033835595500000006506930919881458306_" cx="6716.8857" cy="11636.4541" r="245.3051" gradientTransform="matrix(0.7356 0 0 0.0564 -4395.2412 -208.8508)" gradientUnits="userSpaceOnUse">
		<stop  offset="0" style="stop-color:#323547"/>
		<stop  offset="0.1968" style="stop-color:#35384A;stop-opacity:0.8032"/>
		<stop  offset="0.3424" style="stop-color:#3E4153;stop-opacity:0.6576"/>
		<stop  offset="0.4716" style="stop-color:#4E5161;stop-opacity:0.5284"/>
		<stop  offset="0.5913" style="stop-color:#656776;stop-opacity:0.4087"/>
		<stop  offset="0.7044" style="stop-color:#828491;stop-opacity:0.2956"/>
		<stop  offset="0.8126" style="stop-color:#A6A7B3;stop-opacity:0.1874"/>
		<stop  offset="0.9149" style="stop-color:#D0D0D9;stop-opacity:0.0851"/>
		<stop  offset="1" style="stop-color:#F9F8FF;stop-opacity:0"/>
	</radialGradient>
	
		<ellipse style="opacity:0.4;fill:url(#SVGID_00000013194747033835595500000006506930919881458306_);" cx="545.7" cy="447.477" rx="180.615" ry="9.715"/>
	
		<radialGradient id="SVGID_00000039837467895495631670000015921617084572629162_" cx="884.7968" cy="-5773.7422" r="221.1089" gradientTransform="matrix(0.3898 0 0 0.0393 -188.7294 670.9612)" gradientUnits="userSpaceOnUse">
		<stop  offset="0" style="stop-color:#323547"/>
		<stop  offset="0.1968" style="stop-color:#35384A;stop-opacity:0.8032"/>
		<stop  offset="0.3424" style="stop-color:#3E4153;stop-opacity:0.6576"/>
		<stop  offset="0.4716" style="stop-color:#4E5161;stop-opacity:0.5284"/>
		<stop  offset="0.5913" style="stop-color:#656776;stop-opacity:0.4087"/>
		<stop  offset="0.7044" style="stop-color:#828491;stop-opacity:0.2956"/>
		<stop  offset="0.8126" style="stop-color:#A6A7B3;stop-opacity:0.1874"/>
		<stop  offset="0.9149" style="stop-color:#D0D0D9;stop-opacity:0.0851"/>
		<stop  offset="1" style="stop-color:#F9F8FF;stop-opacity:0"/>
	</radialGradient>
	
		<ellipse style="opacity:0.33;fill:url(#SVGID_00000039837467895495631670000015921617084572629162_);" cx="156.164" cy="444.299" rx="86.269" ry="6.095"/>
	<g>
		
			<radialGradient id="SVGID_00000127003643836461302270000001510643500298961852_" cx="2091.0452" cy="-6266.4253" r="221.1354" gradientTransform="matrix(0.7012 0 0 0.0203 -916.1075 579.2156)" gradientUnits="userSpaceOnUse">
			<stop  offset="0" style="stop-color:#323547"/>
			<stop  offset="0.1968" style="stop-color:#35384A;stop-opacity:0.8032"/>
			<stop  offset="0.3424" style="stop-color:#3E4153;stop-opacity:0.6576"/>
			<stop  offset="0.4716" style="stop-color:#4E5161;stop-opacity:0.5284"/>
			<stop  offset="0.5913" style="stop-color:#656776;stop-opacity:0.4087"/>
			<stop  offset="0.7044" style="stop-color:#828491;stop-opacity:0.2956"/>
			<stop  offset="0.8126" style="stop-color:#A6A7B3;stop-opacity:0.1874"/>
			<stop  offset="0.9149" style="stop-color:#D0D0D9;stop-opacity:0.0851"/>
			<stop  offset="1" style="stop-color:#F9F8FF;stop-opacity:0"/>
		</radialGradient>
		
			<ellipse style="opacity:0.15;fill:url(#SVGID_00000127003643836461302270000001510643500298961852_);" cx="550.133" cy="451.797" rx="155.206" ry="3.156"/>
		<g>
			
				<linearGradient id="SVGID_00000043451000900299734040000005168149365589725837_" gradientUnits="userSpaceOnUse" x1="412.7978" y1="361.7044" x2="687.4691" y2="361.7044">
				<stop  offset="0.8333" style="stop-color:#FFFFFF"/>
				<stop  offset="0.9367" style="stop-color:#7E818F"/>
				<stop  offset="1" style="stop-color:#AFAEB3"/>
			</linearGradient>
			<path style="fill:url(#SVGID_00000043451000900299734040000005168149365589725837_);" d="M412.798,448.721V281.549
				c0-3.789,3.072-6.861,6.861-6.861h260.95c3.789,0,6.861,3.072,6.861,6.861v167.172H412.798z"/>
			<path style="fill:#040205;" d="M686.411,447.726H413.856V281.518c0-3.222,2.612-5.834,5.834-5.834h260.886
				c3.222,0,5.834,2.612,5.834,5.834V447.726z"/>
			<path style="fill:#989FA5;" d="M674.345,434.254H425.922c-1.178,0-2.134-0.955-2.134-2.134V287.004
				c0-1.178,0.955-2.134,2.134-2.134h248.424c1.178,0,2.134,0.955,2.134,2.134V432.12
				C676.479,433.298,675.524,434.254,674.345,434.254z"/>
			
				<radialGradient id="SVGID_00000086688488985350791870000017211301118623402398_" cx="555.0043" cy="279.8159" r="1.5802" gradientUnits="userSpaceOnUse">
				<stop  offset="0.3677" style="stop-color:#FFFFFF"/>
				<stop  offset="0.9367" style="stop-color:#7E818F"/>
				<stop  offset="1" style="stop-color:#AFAEB3"/>
			</radialGradient>
			<path style="fill:url(#SVGID_00000086688488985350791870000017211301118623402398_);" d="M556.633,279.816
				c0,0.845-0.729,1.531-1.628,1.531c-0.899,0-1.628-0.685-1.628-1.531c0-0.845,0.729-1.531,1.628-1.531
				C555.904,278.285,556.633,278.97,556.633,279.816z"/>
		</g>
		
			<linearGradient id="SVGID_00000045585537237891824420000015584517640076160410_" gradientUnits="userSpaceOnUse" x1="550.1334" y1="443.3053" x2="550.1334" y2="447.8917">
			<stop  offset="0.8333" style="stop-color:#FFFFFF"/>
			<stop  offset="0.9367" style="stop-color:#7E818F"/>
			<stop  offset="1" style="stop-color:#AFAEB3"/>
		</linearGradient>
		<path style="fill:url(#SVGID_00000045585537237891824420000015584517640076160410_);" d="M704.491,443.655H553.265h-2.283H395.776
			c-1.522,0-2.755,1.234-2.755,2.757c0,1.523,6.476,5.384,7.998,5.384h149.964h2.283h145.984c1.522,0,7.997-3.861,7.997-5.384
			C707.246,444.89,706.013,443.655,704.491,443.655z"/>
	</g>
	<g>
		<defs>
			<path id="SVGID_00000077292547216051938680000006061225662035013042_" d="M674.453,434.8H426.046
				c-1.183,0-2.142-0.959-2.142-2.142V286.33c0-1.183,0.959-2.142,2.142-2.142h248.406c1.183,0,2.142,0.959,2.142,2.142v146.327
				C676.595,433.841,675.636,434.8,674.453,434.8z"/>
		</defs>
		<clipPath id="SVGID_00000101069204811064848860000013543756073680242336_">
			<use xlink:href="#SVGID_00000077292547216051938680000006061225662035013042_"  style="overflow:visible;"/>
		</clipPath>
		<g style="clip-path:url(#SVGID_00000101069204811064848860000013543756073680242336_);">
			<rect x="334.615" y="291.417" style="fill:#FFFFFF;" width="431.27" height="272.753"/>
			<rect x="334.615" y="265.831" width="431.27" height="127.993"/>
			<polygon style="fill:#D2FDDF;" points="659.068,291.417 600.167,291.417 546.967,384.467 561.031,393.824 757.798,393.824 			"/>
			<g style="opacity:0.15;">
				
					<text transform="matrix(1 0 0 1 494.027 414.8896)" style="fill:#2A2827; font-family:'PlusJakartaSansRoman-Bold'; font-size:8.6179px;">Choose the right plan</text>
			</g>
			<path style="fill:#FFFFFF;" d="M577.049,316.335c-3.557,0-4.899,1.51-4.899,5.512c0-4.002-1.342-5.512-4.899-5.512
				c3.557,0,4.899-1.51,4.899-5.512C572.15,314.825,573.492,316.335,577.049,316.335z"/>
			<path d="M669.343,357.643c-3.557,0-4.899,1.51-4.899,5.512c0-4.002-1.342-5.512-4.899-5.512c3.557,0,4.899-1.51,4.899-5.512
				C664.444,356.134,665.786,357.643,669.343,357.643z"/>
			<g>
				<path style="fill:#DCC8F9;" d="M480.973,299.549c0,1.003-0.813,1.816-1.816,1.816c-1.003,0-1.816-0.813-1.816-1.816
					c0-1.003,0.813-1.816,1.816-1.816C480.159,297.733,480.973,298.546,480.973,299.549z"/>
				<path style="fill:#D2FDDF;" d="M483.758,299.549c0,1.003-0.813,1.816-1.816,1.816s-1.816-0.813-1.816-1.816
					c0-1.003,0.813-1.816,1.816-1.816S483.758,298.546,483.758,299.549z"/>
			</g>
			<g>
				<path style="fill:none;stroke:#141414;stroke-width:0.2743;stroke-miterlimit:10;" d="M659.1,300.678h-12.357
					c-1.252,0-2.266-1.015-2.266-2.266l0,0c0-1.252,1.015-2.266,2.266-2.266H659.1c1.251,0,2.266,1.014,2.266,2.266l0,0
					C661.365,299.664,660.351,300.678,659.1,300.678z"/>
			</g>
			
				<line style="fill:none;stroke:#DCC8F9;stroke-width:0.2743;stroke-miterlimit:10;" x1="496.456" y1="375.81" x2="533.081" y2="375.81"/>
			<path style="fill:#DCC8F9;" d="M483.212,378.138h-24.607c-2.492,0-4.512-2.02-4.512-4.512v0c0-2.492,2.02-4.512,4.512-4.512
				h24.607c2.492,0,4.512,2.02,4.512,4.512v0C487.724,376.118,485.704,378.138,483.212,378.138z"/>
			<path style="fill:#DCC8F9;" d="M536.998,372.924l-1.771-1.023c-0.247-0.142-0.555,0.036-0.555,0.32v2.046
				c0,0.285,0.308,0.463,0.555,0.32l1.771-1.023C537.244,373.423,537.244,373.067,536.998,372.924z"/>
			<path style="fill:#DCC8F9;" d="M589.809,520.68h-61.082c-0.288,0-0.522-0.234-0.522-0.522v-92.235
				c0-0.288,0.234-0.522,0.522-0.522h61.082c0.288,0,0.522,0.234,0.522,0.522v92.235C590.331,520.446,590.098,520.68,589.809,520.68
				z"/>
			<path d="M547.214,437.03H535.68c-1.494,0-2.705-1.211-2.705-2.705l0,0c0-1.494,1.211-2.705,2.705-2.705h11.533
				c1.494,0,2.705,1.211,2.705,2.705l0,0C549.918,435.819,548.707,437.03,547.214,437.03z"/>
			<path style="fill:none;stroke:#000000;stroke-width:0.2743;stroke-linecap:round;stroke-miterlimit:10;" d="M531.487,459.698
				c0.338,0,55.81,0,55.81,0"/>
			<path style="fill:#D2FDDF;" d="M663.923,520.68H602.84c-0.288,0-0.522-0.234-0.522-0.522v-92.235
				c0-0.288,0.234-0.522,0.522-0.522h61.082c0.288,0,0.522,0.234,0.522,0.522v92.235C664.444,520.446,664.211,520.68,663.923,520.68
				z"/>
			<path d="M624.917,437.03h-11.533c-1.494,0-2.705-1.211-2.705-2.705l0,0c0-1.494,1.211-2.705,2.705-2.705h11.533
				c1.494,0,2.705,1.211,2.705,2.705l0,0C627.622,435.819,626.411,437.03,624.917,437.03z"/>
			<path style="fill:none;stroke:#000000;stroke-width:0.24;stroke-linecap:round;stroke-miterlimit:10;" d="M610.679,459.75
				c0.258,0,42.732,0,42.732,0"/>
			<path style="fill:#F0F7F6;" d="M515.696,520.68h-61.082c-0.288,0-0.522-0.234-0.522-0.522v-92.235
				c0-0.288,0.234-0.522,0.522-0.522h61.082c0.288,0,0.522,0.234,0.522,0.522v92.235C516.218,520.446,515.984,520.68,515.696,520.68
				z"/>
			<path d="M473.993,437.03H463.42c-1.442,0-2.612-1.169-2.612-2.612v-0.186c0-1.442,1.169-2.612,2.612-2.612h10.572
				c1.442,0,2.612,1.169,2.612,2.612v0.186C476.604,435.861,475.435,437.03,473.993,437.03z"/>
			<path style="fill:none;stroke:#000000;stroke-width:0.2451;stroke-linecap:round;stroke-miterlimit:10;" d="M459.839,459.75
				c0.27,0,44.56,0,44.56,0"/>
			<g>
				<path style="fill:#141414;" d="M584.846,367.574c4.153,0,8.734-3.654,10.213-8.146l12.178-36.989
					c1.411-4.284,5.759-7.769,9.693-7.769c1.687,0,3.093,0.658,3.958,1.854c1.041,1.44,1.221,3.534,0.494,5.744l-12.013,36.988
					c-0.784,2.379-0.575,4.652,0.572,6.237c0.971,1.342,2.534,2.081,4.402,2.081c4.153,0,8.735-3.654,10.213-8.146l12.178-36.989
					c1.411-4.284,5.758-7.769,9.692-7.769c1.687,0,3.093,0.658,3.958,1.854c1.041,1.44,1.221,3.534,0.494,5.744l-12.012,36.988
					c-0.783,2.379-0.575,4.652,0.571,6.237c0.971,1.342,2.534,2.081,4.402,2.081c4.153,0,8.734-3.654,10.213-8.146l12.178-36.989
					c1.411-4.284,5.758-7.769,9.692-7.769c0.257,0,0.505,0.02,0.748,0.051v-0.555c-0.243-0.027-0.492-0.044-0.748-0.044
					c-4.153,0-8.734,3.654-10.213,8.146l-12.178,36.989c-1.411,4.284-5.758,7.769-9.692,7.769c-1.687,0-3.092-0.658-3.958-1.854
					c-1.041-1.44-1.223-3.533-0.494-5.745l12.012-36.988c0.783-2.378,0.575-4.651-0.572-6.236c-0.971-1.342-2.534-2.081-4.402-2.081
					c-4.153,0-8.734,3.654-10.213,8.146l-12.178,36.989c-1.41,4.284-5.759,7.769-9.693,7.769c-1.687,0-3.092-0.658-3.958-1.854
					c-1.041-1.44-1.223-3.533-0.495-5.745l12.013-36.988c0.783-2.378,0.575-4.651-0.571-6.236c-0.971-1.342-2.534-2.081-4.402-2.081
					c-4.153,0-8.734,3.654-10.213,8.146l-12.178,36.989c-1.41,4.284-5.758,7.769-9.692,7.769c-1.687,0-3.092-0.658-3.958-1.854
					c-1.041-1.44-1.223-3.533-0.494-5.745l12.012-36.988c0.784-2.379,0.575-4.652-0.572-6.236c-0.971-1.342-2.534-2.081-4.402-2.081
					c-0.084,0-0.17,0.011-0.255,0.014l-0.324,0.566c0.193-0.016,0.387-0.031,0.579-0.031c1.687,0,3.093,0.658,3.958,1.854
					c1.041,1.44,1.222,3.534,0.494,5.744l-12.012,36.988c-0.784,2.379-0.575,4.652,0.572,6.237
					C581.415,366.835,582.979,367.574,584.846,367.574z"/>
			</g>
			<g>
				<rect x="648.445" y="310.021" style="fill:#DCC8F9;" width="2.483" height="6.554"/>
				<rect x="648.445" y="323.115" style="fill:#DCC8F9;" width="2.483" height="6.554"/>
				<rect x="650.928" y="316.509" width="2.483" height="6.554"/>
				<rect x="653.411" y="310.021" width="2.483" height="6.554"/>
				<rect x="653.411" y="323.115" width="2.483" height="6.554"/>
				<rect x="655.894" y="316.509" style="fill:#DCC8F9;" width="2.483" height="6.554"/>
			</g>
			<polygon style="fill:#DCC8F9;" points="613.714,355.699 623.29,332.142 601.754,345.664 593.947,321.462 586.141,345.664 
				564.604,332.142 574.18,355.699 548.991,359.185 571.469,371.075 554.414,389.936 579.276,384.596 578.934,393.824 
				590.923,393.824 593.947,389.936 596.971,393.824 608.961,393.824 608.619,384.596 633.481,389.936 616.425,371.075 
				638.903,359.185 			"/>
			<g>
				<g>
					<polygon points="645.939,386.448 651.24,386.448 646.114,381.073 645.939,381.073 					"/>
					<polygon style="fill:#DCC8F9;" points="651.315,386.448 651.315,381.073 646.114,381.073 651.24,386.448 					"/>
				</g>
				<g>
					<polygon points="651.203,381.185 656.504,381.185 651.377,375.81 651.203,375.81 					"/>
					<polygon style="fill:#DCC8F9;" points="656.578,381.185 656.578,375.81 651.377,375.81 656.504,381.185 					"/>
				</g>
			</g>
			<g>
				<path style="fill:none;stroke:#141414;stroke-width:1.0971;stroke-miterlimit:10;" d="M627.651,332.051h3.395
					c2.39,0,4.333,1.939,4.333,4.333v25.501c0,2.39-1.943,4.333-4.333,4.333h-43.572c-2.394,0-4.333-1.943-4.333-4.333v-25.501
					c0-2.393,1.939-4.333,4.333-4.333h21.627H627.651z"/>
				
					<line style="fill:none;stroke:#141414;stroke-width:1.0971;stroke-miterlimit:10;" x1="583.142" y1="360.108" x2="635.377" y2="360.108"/>
				
					<line style="fill:none;stroke:#141414;stroke-width:1.0971;stroke-miterlimit:10;" x1="605.506" y1="366.216" x2="603.689" y2="375.809"/>
				
					<line style="fill:none;stroke:#141414;stroke-width:1.0971;stroke-miterlimit:10;" x1="614.612" y1="366.216" x2="616.429" y2="375.809"/>
				
					<line style="fill:none;stroke:#141414;stroke-width:1.0971;stroke-miterlimit:10;" x1="599.481" y1="375.809" x2="620.988" y2="375.809"/>
				<g>
					<path style="fill:none;stroke:#141414;stroke-width:1.0971;stroke-miterlimit:10;" d="M604.656,353.745l0.809,0.612
						c0.144,0.109,0.349,0.08,0.457-0.065l2.068-2.745c0.11-0.148,0.322-0.174,0.465-0.059l1.144,0.925
						c0.202,0.163,0.504,0.036,0.528-0.222l0.558-5.947c0.03-0.323-0.439-0.681-0.743-0.567l-5.588,2.109
						c-0.243,0.092-0.286,0.417-0.075,0.568l1.194,0.859c0.15,0.108,0.18,0.319,0.066,0.464l-2.101,2.72
						c-0.111,0.142-0.085,0.348,0.058,0.458l0.804,0.618L604.656,353.745z"/>
					
						<line style="fill:none;stroke:#141414;stroke-width:1.0971;stroke-linecap:round;stroke-miterlimit:10;" x1="611.843" y1="344.264" x2="613.875" y2="341.749"/>
					
						<line style="fill:none;stroke:#141414;stroke-width:1.0971;stroke-linecap:round;stroke-miterlimit:10;" x1="609.352" y1="343.935" x2="609.104" y2="341.522"/>
					
						<line style="fill:none;stroke:#141414;stroke-width:1.0971;stroke-linecap:round;stroke-miterlimit:10;" x1="612.57" y1="346.349" x2="614.612" y2="346.349"/>
				</g>
			</g>
		</g>
	</g>
	<g>
		<path style="fill:#989FA5;" d="M76.31,446.724c-2.894,0-5.249-2.355-5.249-5.249V234.809c0-2.894,2.355-5.249,5.249-5.249h154.363
			c2.894,0,5.249,2.355,5.249,5.249v206.666c0,2.894-2.355,5.249-5.249,5.249H76.31z"/>
		<path style="fill:#040205;" d="M72.056,441.475V234.809c0-2.349,1.904-4.254,4.254-4.254h154.363c2.349,0,4.254,1.904,4.254,4.254
			v206.666c0,2.349-1.904,4.254-4.254,4.254H76.31C73.961,445.729,72.056,443.824,72.056,441.475z"/>
		<rect x="80.021" y="240.758" style="fill:#989FA5;" width="146.94" height="194.768"/>
		<path style="fill:#989FA5;" d="M154.986,235.275c0,0.826-0.669,1.495-1.495,1.495s-1.495-0.669-1.495-1.495
			c0-0.826,0.669-1.495,1.495-1.495S154.986,234.449,154.986,235.275z"/>
	</g>
	
		<linearGradient id="SVGID_00000111878031267953496800000012161918035665275551_" gradientUnits="userSpaceOnUse" x1="337.9221" y1="161.2269" x2="501.4934" y2="358.728">
		<stop  offset="0" style="stop-color:#FFFFFF"/>
		<stop  offset="0.7176" style="stop-color:#FCFCFF;stop-opacity:0.2824"/>
		<stop  offset="1" style="stop-color:#F9F8FF;stop-opacity:0"/>
	</linearGradient>
	<path style="fill:url(#SVGID_00000111878031267953496800000012161918035665275551_);" d="M590.011,279.32H420.558
		c-1.852,0-3.353,1.501-3.353,3.353L416.425,442.3L590.011,279.32z"/>
	<g>
		<g>
			<defs>
				
					<rect id="SVGID_00000122703684145753602900000016361664146010955676_" x="80.021" y="240.758" width="146.94" height="194.768"/>
			</defs>
			<clipPath id="SVGID_00000053544591309850594510000002590682262752889002_">
				<use xlink:href="#SVGID_00000122703684145753602900000016361664146010955676_"  style="overflow:visible;"/>
			</clipPath>
			<g style="clip-path:url(#SVGID_00000053544591309850594510000002590682262752889002_);">
				<rect x="21.925" y="257.819" style="fill:#FFFFFF;" width="287.853" height="186.48"/>
				<path style="fill:#DCC8F9;" d="M218.609,398.995H88.033c-0.211,0-0.382-0.171-0.382-0.382v-22.885
					c0-0.211,0.171-0.382,0.382-0.382h130.576c0.211,0,0.382,0.171,0.382,0.382v22.885
					C218.991,398.824,218.82,398.995,218.609,398.995z"/>
				<rect x="24.465" y="236.77" width="287.853" height="85.43"/>
				<path style="fill:#DCC8F9;" d="M105.593,252.237c0,0.67-0.543,1.212-1.212,1.212s-1.212-0.543-1.212-1.212
					c0-0.67,0.543-1.212,1.212-1.212S105.593,251.568,105.593,252.237z"/>
				<path style="fill:#D2FDDF;" d="M107.452,252.237c0,0.67-0.543,1.212-1.212,1.212c-0.67,0-1.212-0.543-1.212-1.212
					c0-0.67,0.543-1.212,1.212-1.212C106.909,251.025,107.452,251.568,107.452,252.237z"/>
				
					<line style="fill:none;stroke:#DCC8F9;stroke-width:0.1831;stroke-miterlimit:10;" x1="115.927" y1="307.933" x2="140.373" y2="307.933"/>
				<path style="fill:#DCC8F9;" d="M107.087,309.487H90.663c-1.663,0-3.012-1.348-3.012-3.012l0,0c0-1.663,1.348-3.012,3.012-3.012
					h16.424c1.663,0,3.012,1.348,3.012,3.012l0,0C110.099,308.139,108.751,309.487,107.087,309.487z"/>
				<path style="fill:#DCC8F9;" d="M142.987,306.007l-1.182-0.683c-0.165-0.095-0.37,0.024-0.37,0.214v1.365
					c0,0.19,0.206,0.309,0.37,0.214l1.182-0.683C143.152,306.34,143.152,306.102,142.987,306.007z"/>
				<path d="M99.606,382.273h-7.254c-0.939,0-1.701-0.762-1.701-1.701l0,0c0-0.94,0.762-1.701,1.701-1.701h7.254
					c0.939,0,1.701,0.762,1.701,1.701l0,0C101.307,381.512,100.545,382.273,99.606,382.273z"/>
				<circle style="fill:#FFFFFF;" cx="135" cy="383.52" r="1.433"/>
				<path style="fill:none;stroke:#000000;stroke-width:0.3372;stroke-linecap:round;stroke-miterlimit:10;" d="M134.021,382.733
					c-0.095,0.013,0.394,0.788,0.681,1.228c0.087,0.134,0.286,0.122,0.36-0.02l0.931-1.809"/>
				<path style="fill:#FFFFFF;" d="M136.433,390.968c0,0.791-0.642,1.433-1.433,1.433c-0.791,0-1.433-0.642-1.433-1.433
					c0-0.792,0.642-1.433,1.433-1.433C135.792,389.534,136.433,390.176,136.433,390.968z"/>
				<path style="fill:none;stroke:#000000;stroke-width:0.3372;stroke-linecap:round;stroke-miterlimit:10;" d="M134.021,390.18
					c-0.095,0.013,0.394,0.788,0.681,1.228c0.087,0.134,0.286,0.122,0.36-0.02l0.931-1.809"/>
				<circle style="fill:#FFFFFF;" cx="177.842" cy="383.52" r="1.433"/>
				<path style="fill:none;stroke:#000000;stroke-width:0.3372;stroke-linecap:round;stroke-miterlimit:10;" d="M176.863,382.733
					c-0.095,0.013,0.394,0.788,0.681,1.228c0.087,0.134,0.286,0.122,0.36-0.02l0.931-1.809"/>
				<path style="fill:#FFFFFF;" d="M179.275,390.968c0,0.791-0.642,1.433-1.433,1.433s-1.433-0.642-1.433-1.433
					c0-0.792,0.642-1.433,1.433-1.433S179.275,390.176,179.275,390.968z"/>
				<path style="fill:none;stroke:#000000;stroke-width:0.3372;stroke-linecap:round;stroke-miterlimit:10;" d="M176.863,390.18
					c-0.095,0.013,0.394,0.788,0.681,1.228c0.087,0.134,0.286,0.122,0.36-0.02l0.931-1.809"/>
				<path style="fill:none;stroke:#000000;stroke-width:0.0893;stroke-linecap:round;stroke-miterlimit:10;" d="M121.709,396.307
					c0-0.111,0-18.307,0-18.307"/>
				<path style="fill:#F0F7F6;" d="M218.757,370.384H88.039c-0.214,0-0.388-0.174-0.388-0.388v-23.581
					c0-0.214,0.174-0.388,0.388-0.388h130.718c0.214,0,0.388,0.174,0.388,0.388v23.581
					C219.145,370.21,218.971,370.384,218.757,370.384z"/>
				<path d="M100.167,353.085h-6.649c-0.907,0-1.643-0.735-1.643-1.643v-0.117c0-0.907,0.735-1.642,1.643-1.642h6.649
					c0.907,0,1.643,0.735,1.643,1.642v0.117C101.809,352.349,101.074,353.085,100.167,353.085z"/>
				<path style="fill:none;stroke:#000000;stroke-width:0.1236;stroke-linecap:round;stroke-miterlimit:10;" d="M121.713,348.68
					c0,0.109,0,18.025,0,18.025"/>
				<g>
					<path style="fill:#FFFFFF;" d="M136.433,354.05c0,0.791-0.642,1.433-1.433,1.433c-0.791,0-1.433-0.642-1.433-1.433
						c0-0.791,0.642-1.433,1.433-1.433C135.792,352.617,136.433,353.258,136.433,354.05z"/>
					<path style="fill:none;stroke:#000000;stroke-width:0.3372;stroke-linecap:round;stroke-miterlimit:10;" d="M134.021,353.263
						c-0.095,0.013,0.394,0.787,0.681,1.228c0.087,0.134,0.286,0.122,0.36-0.02l0.931-1.809"/>
				</g>
				<g>
					<circle style="fill:#FFFFFF;" cx="135" cy="361.497" r="1.433"/>
					<path style="fill:none;stroke:#000000;stroke-width:0.3372;stroke-linecap:round;stroke-miterlimit:10;" d="M134.021,360.71
						c-0.095,0.013,0.394,0.787,0.681,1.228c0.087,0.134,0.286,0.122,0.36-0.02l0.931-1.809"/>
				</g>
				<path style="fill:#F0F7F6;" d="M218.757,428.314H88.039c-0.214,0-0.388-0.174-0.388-0.388v-23.581
					c0-0.214,0.174-0.388,0.388-0.388h130.718c0.214,0,0.388,0.174,0.388,0.388v23.581
					C219.145,428.141,218.971,428.314,218.757,428.314z"/>
				<path d="M100.167,411.016h-6.649c-0.907,0-1.643-0.735-1.643-1.643v-0.117c0-0.907,0.735-1.643,1.643-1.643h6.649
					c0.907,0,1.643,0.735,1.643,1.643v0.117C101.809,410.28,101.074,411.016,100.167,411.016z"/>
				<path style="fill:none;stroke:#000000;stroke-width:0.1236;stroke-linecap:round;stroke-miterlimit:10;" d="M121.713,406.611
					c0,0.109,0,18.025,0,18.025"/>
				<path style="fill:#FFFFFF;" d="M136.433,411.98c0,0.792-0.642,1.433-1.433,1.433c-0.791,0-1.433-0.642-1.433-1.433
					c0-0.791,0.642-1.433,1.433-1.433C135.792,410.547,136.433,411.189,136.433,411.98z"/>
				<path style="fill:none;stroke:#000000;stroke-width:0.3372;stroke-linecap:round;stroke-miterlimit:10;" d="M134.021,411.193
					c-0.095,0.013,0.394,0.788,0.681,1.228c0.087,0.134,0.286,0.122,0.36-0.02l0.931-1.809"/>
				<circle style="fill:#FFFFFF;" cx="135" cy="419.428" r="1.433"/>
				<path style="fill:none;stroke:#000000;stroke-width:0.3372;stroke-linecap:round;stroke-miterlimit:10;" d="M134.021,418.641
					c-0.095,0.013,0.394,0.788,0.681,1.228c0.087,0.134,0.286,0.122,0.36-0.02l0.931-1.809"/>
				<path style="fill:#FFFFFF;" d="M179.275,411.98c0,0.792-0.642,1.433-1.433,1.433s-1.433-0.642-1.433-1.433
					c0-0.791,0.642-1.433,1.433-1.433S179.275,411.189,179.275,411.98z"/>
				<path style="fill:none;stroke:#000000;stroke-width:0.3372;stroke-linecap:round;stroke-miterlimit:10;" d="M176.863,411.193
					c-0.095,0.013,0.394,0.788,0.681,1.228c0.087,0.134,0.286,0.122,0.36-0.02l0.931-1.809"/>
				<circle style="fill:#FFFFFF;" cx="177.842" cy="419.428" r="1.433"/>
				<path style="fill:none;stroke:#000000;stroke-width:0.3372;stroke-linecap:round;stroke-miterlimit:10;" d="M176.863,418.641
					c-0.095,0.013,0.394,0.788,0.681,1.228c0.087,0.134,0.286,0.122,0.36-0.02l0.931-1.809"/>
				<polygon style="fill:#D2FDDF;" points="227.214,238.995 184.519,238.995 142.49,322.532 156.152,322.532 298.779,323.347 				
					"/>
				<path style="fill:#FFFFFF;" d="M167.762,267.179c-2.578,0-3.551,1.094-3.551,3.995c0-2.901-0.973-3.995-3.551-3.995
					c2.579,0,3.551-1.094,3.551-3.996C164.212,266.084,165.184,267.179,167.762,267.179z"/>
				<path d="M235.982,300.309c-2.579,0-3.551,1.094-3.551,3.995c0-2.901-0.973-3.995-3.551-3.995c2.579,0,3.551-1.094,3.551-3.996
					C232.431,299.215,233.403,300.309,235.982,300.309z"/>
				<path style="fill:none;stroke:#141414;stroke-width:0.1988;stroke-miterlimit:10;" d="M217.644,253.88h-8.957
					c-0.907,0-1.642-0.735-1.642-1.643l0,0c0-0.907,0.735-1.643,1.642-1.643h8.957c0.907,0,1.642,0.735,1.642,1.643l0,0
					C219.287,253.144,218.551,253.88,217.644,253.88z"/>
				<path style="fill:#141414;" d="M168.976,301.928c3.206,0,6.744-2.649,7.886-5.905l9.403-26.811
					c1.089-3.105,4.447-5.631,7.484-5.631c1.302,0,2.388,0.477,3.056,1.344c0.804,1.044,0.943,2.561,0.382,4.164l-9.275,26.811
					c-0.605,1.724-0.444,3.372,0.441,4.521c0.749,0.973,1.957,1.508,3.399,1.508c3.207,0,6.744-2.649,7.886-5.905l9.403-26.811
					c1.089-3.105,4.446-5.631,7.484-5.631c1.303,0,2.388,0.477,3.056,1.344c0.804,1.044,0.943,2.561,0.382,4.164l-9.275,26.811
					c-0.605,1.724-0.444,3.372,0.441,4.521c0.749,0.973,1.957,1.508,3.399,1.508c3.206,0,6.744-2.649,7.886-5.905l9.403-26.811
					c1.089-3.105,4.446-5.631,7.484-5.631c0.198,0,0.39,0.015,0.577,0.037v-0.402c-0.188-0.02-0.38-0.032-0.577-0.032
					c-3.206,0-6.744,2.649-7.886,5.905l-9.403,26.811c-1.089,3.105-4.446,5.631-7.484,5.631c-1.302,0-2.388-0.477-3.056-1.344
					c-0.804-1.044-0.944-2.561-0.382-4.164l9.275-26.811c0.604-1.724,0.444-3.371-0.441-4.521c-0.749-0.973-1.957-1.508-3.399-1.508
					c-3.206,0-6.744,2.649-7.886,5.905l-9.403,26.811c-1.089,3.105-4.447,5.631-7.484,5.631c-1.303,0-2.388-0.477-3.056-1.344
					c-0.804-1.044-0.944-2.561-0.382-4.164l9.275-26.811c0.605-1.724,0.444-3.371-0.441-4.521c-0.749-0.973-1.957-1.508-3.399-1.508
					c-3.206,0-6.744,2.649-7.886,5.905l-9.403,26.811c-1.089,3.105-4.446,5.631-7.484,5.631c-1.302,0-2.388-0.477-3.056-1.344
					c-0.804-1.044-0.944-2.561-0.382-4.164l9.275-26.811c0.605-1.724,0.444-3.372-0.441-4.521c-0.749-0.973-1.957-1.508-3.399-1.508
					c-0.065,0-0.131,0.008-0.197,0.01l-0.25,0.41c0.149-0.012,0.299-0.023,0.447-0.023c1.303,0,2.388,0.477,3.056,1.344
					c0.804,1.044,0.943,2.561,0.382,4.164l-9.275,26.811c-0.605,1.724-0.444,3.372,0.441,4.521
					C166.326,301.393,167.534,301.928,168.976,301.928z"/>
				<g>
					<rect x="218.614" y="261.781" style="fill:#DCC8F9;" width="1.8" height="4.751"/>
					<rect x="218.614" y="271.272" style="fill:#DCC8F9;" width="1.8" height="4.751"/>
					<rect x="220.414" y="266.484" width="1.8" height="4.751"/>
					<rect x="222.214" y="261.781" width="1.8" height="4.751"/>
					<rect x="222.214" y="271.272" width="1.8" height="4.751"/>
					<rect x="224.014" y="266.484" style="fill:#DCC8F9;" width="1.8" height="4.751"/>
				</g>
				<polygon style="fill:#DCC8F9;" points="194.908,295.105 201.849,278.03 186.238,287.831 180.579,270.289 174.921,287.831 
					159.31,278.03 166.251,295.105 147.993,297.632 164.286,306.25 151.923,319.922 169.945,316.052 169.697,322.74 178.387,322.74 
					180.579,319.922 182.772,322.74 191.462,322.74 191.214,316.052 209.236,319.922 196.873,306.25 213.166,297.632 				"/>
				<g>
					<polygon points="217.698,318.001 221.54,318.001 217.824,314.104 217.698,314.104 					"/>
					<polygon style="fill:#DCC8F9;" points="221.594,318.001 221.594,314.104 217.824,314.104 221.54,318.001 					"/>
				</g>
				<g>
					<polygon points="221.513,314.185 225.355,314.185 221.639,310.289 221.513,310.289 					"/>
					<polygon style="fill:#DCC8F9;" points="225.409,314.185 225.409,310.289 221.639,310.289 225.355,314.185 					"/>
				</g>
				<path style="fill:none;stroke:#141414;stroke-width:0.7952;stroke-miterlimit:10;" d="M204.442,278.571h2.461
					c1.732,0,3.141,1.406,3.141,3.141v18.484c0,1.732-1.408,3.141-3.141,3.141H175.32c-1.735,0-3.141-1.408-3.141-3.141v-18.484
					c0-1.735,1.406-3.141,3.141-3.141h15.676H204.442z"/>
				
					<line style="fill:none;stroke:#141414;stroke-width:0.7952;stroke-miterlimit:10;" x1="172.179" y1="298.908" x2="210.042" y2="298.908"/>
				
					<line style="fill:none;stroke:#141414;stroke-width:0.7952;stroke-miterlimit:10;" x1="188.389" y1="303.335" x2="187.073" y2="310.289"/>
				
					<line style="fill:none;stroke:#141414;stroke-width:0.7952;stroke-miterlimit:10;" x1="194.99" y1="303.335" x2="196.307" y2="310.289"/>
				
					<line style="fill:none;stroke:#141414;stroke-width:0.7952;stroke-linecap:round;stroke-miterlimit:10;" x1="184.022" y1="310.289" x2="199.612" y2="310.289"/>
				<g>
					<path style="fill:none;stroke:#141414;stroke-width:0.7952;stroke-miterlimit:10;" d="M187.774,294.296l0.586,0.444
						c0.104,0.079,0.253,0.058,0.331-0.047l1.499-1.989c0.08-0.107,0.233-0.127,0.337-0.042l0.829,0.67
						c0.146,0.118,0.365,0.026,0.383-0.161l0.404-4.31c0.022-0.234-0.318-0.494-0.538-0.411l-4.051,1.529
						c-0.176,0.066-0.207,0.302-0.054,0.412l0.866,0.623c0.109,0.078,0.13,0.231,0.048,0.336l-1.523,1.971
						c-0.081,0.103-0.062,0.252,0.042,0.332l0.583,0.448L187.774,294.296z"/>
					
						<line style="fill:none;stroke:#141414;stroke-width:0.7952;stroke-linecap:round;stroke-miterlimit:10;" x1="192.983" y1="287.423" x2="194.456" y2="285.6"/>
					
						<line style="fill:none;stroke:#141414;stroke-width:0.7952;stroke-linecap:round;stroke-miterlimit:10;" x1="191.177" y1="287.185" x2="190.998" y2="285.435"/>
					
						<line style="fill:none;stroke:#141414;stroke-width:0.7952;stroke-linecap:round;stroke-miterlimit:10;" x1="193.51" y1="288.934" x2="194.99" y2="288.934"/>
				</g>
			</g>
		</g>
	</g>
	<g>
		<g>
			<g>
				<path style="fill:#989FA5;" d="M203.299,465.793c-5.785,0-10.49-4.706-10.49-10.491V295.389c0-5.784,4.706-10.49,10.49-10.49
					h70.179c5.785,0,10.491,4.706,10.491,10.49v159.913c0,5.785-4.706,10.491-10.491,10.491H203.299z"/>
				<path style="fill:#040205;" d="M273.479,465.482h-70.179c-5.622,0-10.18-4.557-10.18-10.18V295.389
					c0-5.622,4.558-10.18,10.18-10.18h70.179c5.622,0,10.18,4.558,10.18,10.18v159.913
					C283.658,460.924,279.101,465.482,273.479,465.482z"/>
				<rect x="196.479" y="304.73" width="83.821" height="138.878"/>
				<g>
					<path style="fill:#989FA5;" d="M241.807,297.545H230.66c-0.639,0-1.157-0.518-1.157-1.157v0c0-0.639,0.518-1.157,1.157-1.157
						h11.147c0.639,0,1.157,0.518,1.157,1.157v0C242.964,297.027,242.446,297.545,241.807,297.545z"/>
					<circle style="fill:#989FA5;" cx="247.193" cy="296.218" r="1.326"/>
				</g>
				<g>
					<path style="fill:#989FA5;" d="M283.658,316.775c0,0,1.95,3.427,1.95,5.144v6.154c0,1.539-0.722,2.989-1.95,3.916l0,0V316.775z
						"/>
					<path style="fill:#989FA5;" d="M283.658,335.147c0,0,1.95,2.007,1.95,3.013v3.604c0,0.901-0.722,1.75-1.95,2.293l0,0V335.147z"
						/>
				</g>
			</g>
		</g>
		
			<linearGradient id="SVGID_00000127007344975959605740000008777067630485872312_" gradientUnits="userSpaceOnUse" x1="239.7827" y1="448.577" x2="239.6885" y2="456.3049">
			<stop  offset="0" style="stop-color:#AFAEB3"/>
			<stop  offset="0.9947" style="stop-color:#D0D1D6"/>
		</linearGradient>
		<path style="fill:url(#SVGID_00000127007344975959605740000008777067630485872312_);" d="M249.844,456.544h-20.277
			c-0.879,0-1.592-0.713-1.592-1.592l0,0c0-0.879,0.713-1.592,1.592-1.592h20.277c0.879,0,1.592,0.713,1.592,1.592l0,0
			C251.435,455.832,250.723,456.544,249.844,456.544z"/>
	</g>
	<g>
		<g>
			<defs>
				
					<rect id="SVGID_00000179622301626790676750000013121359522848534206_" x="196.479" y="304.73" width="83.821" height="138.878"/>
			</defs>
			<clipPath id="SVGID_00000137827106719787840360000000893855894480550537_">
				<use xlink:href="#SVGID_00000179622301626790676750000013121359522848534206_"  style="overflow:visible;"/>
			</clipPath>
			<g style="clip-path:url(#SVGID_00000137827106719787840360000000893855894480550537_);">
				<polygon style="fill:#D2FDDF;" points="284.109,297.085 218.736,300.177 188.187,410.313 205.202,410.313 382.822,411.328 				
					"/>
				<path style="fill:#FFFFFF;" d="M207.777,334.613c-3.211,0-4.422,1.363-4.422,4.976c0-3.613-1.211-4.976-4.422-4.976
					c3.211,0,4.422-1.363,4.422-4.976C203.355,333.25,204.566,334.613,207.777,334.613z"/>
				<path d="M294.349,382.638c-3.211,0-4.422,1.363-4.422,4.976c0-3.613-1.211-4.976-4.422-4.976c3.211,0,4.422-1.363,4.422-4.976
					C289.927,381.275,291.138,382.638,294.349,382.638z"/>
				<path style="fill:#141414;" d="M205.661,384.654c3.993,0,8.399-3.299,9.82-7.354l11.71-33.39
					c1.357-3.867,5.538-7.013,9.32-7.013c1.622,0,2.974,0.594,3.806,1.674c1.001,1.3,1.174,3.19,0.475,5.185l-11.551,33.389
					c-0.754,2.147-0.553,4.199,0.55,5.63c0.933,1.211,2.437,1.878,4.233,1.878c3.994,0,8.399-3.299,9.821-7.354l11.71-33.39
					c1.356-3.867,5.537-7.013,9.32-7.013c1.622,0,2.974,0.594,3.806,1.674c1.001,1.3,1.174,3.19,0.475,5.185l-11.551,33.389
					c-0.753,2.147-0.553,4.199,0.55,5.63c0.933,1.211,2.437,1.878,4.233,1.878c3.993,0,8.399-3.299,9.82-7.354l11.711-33.39
					c1.356-3.867,5.537-7.013,9.32-7.013c0.247,0,0.485,0.018,0.719,0.046v-0.501c-0.234-0.025-0.473-0.04-0.719-0.04
					c-3.993,0-8.399,3.299-9.82,7.353l-11.71,33.39c-1.356,3.867-5.537,7.013-9.32,7.013c-1.622,0-2.974-0.594-3.806-1.674
					c-1.001-1.3-1.176-3.19-0.475-5.186l11.551-33.389c0.753-2.147,0.553-4.199-0.55-5.63c-0.933-1.211-2.437-1.878-4.233-1.878
					c-3.993,0-8.399,3.299-9.821,7.353l-11.71,33.39c-1.356,3.867-5.537,7.013-9.32,7.013c-1.622,0-2.974-0.594-3.806-1.674
					c-1.001-1.3-1.176-3.19-0.475-5.186l11.551-33.389c0.753-2.147,0.553-4.199-0.55-5.63c-0.933-1.211-2.437-1.878-4.233-1.878
					c-3.993,0-8.399,3.299-9.821,7.353l-11.71,33.39c-1.356,3.867-5.537,7.013-9.32,7.013c-1.622,0-2.974-0.594-3.806-1.674
					c-1.001-1.3-1.176-3.19-0.475-5.186l11.551-33.389c0.754-2.147,0.553-4.199-0.55-5.63c-0.933-1.211-2.437-1.878-4.233-1.878
					c-0.081,0-0.164,0.01-0.245,0.012l-0.311,0.511c0.186-0.015,0.372-0.028,0.556-0.028c1.622,0,2.974,0.594,3.806,1.674
					c1.001,1.3,1.175,3.19,0.475,5.185l-11.551,33.389c-0.754,2.147-0.553,4.199,0.55,5.63
					C202.362,383.987,203.865,384.654,205.661,384.654z"/>
				<g>
					<rect x="272.72" y="334.657" style="fill:#DCC8F9;" width="2.242" height="5.916"/>
					<rect x="272.72" y="346.477" style="fill:#DCC8F9;" width="2.242" height="5.916"/>
					<rect x="274.962" y="340.514" width="2.242" height="5.916"/>
					<rect x="277.203" y="334.657" width="2.242" height="5.916"/>
					<rect x="277.203" y="346.477" width="2.242" height="5.916"/>
					<rect x="279.445" y="340.514" style="fill:#DCC8F9;" width="2.242" height="5.916"/>
				</g>
				<polygon style="fill:#DCC8F9;" points="243.198,376.157 251.842,354.892 232.401,367.098 225.354,345.252 218.307,367.098 
					198.867,354.892 207.511,376.157 184.773,379.304 205.063,390.037 189.667,407.063 212.11,402.243 211.802,410.573 
					222.624,410.573 225.354,407.063 228.084,410.573 238.907,410.573 238.598,402.243 261.041,407.063 245.645,390.037 
					265.936,379.304 				"/>
				<g>
					<polygon points="271.579,404.67 276.365,404.67 271.737,399.818 271.579,399.818 					"/>
					<polygon style="fill:#DCC8F9;" points="276.432,404.67 276.432,399.818 271.737,399.818 276.365,404.67 					"/>
				</g>
				<g>
					<polygon points="276.331,399.919 281.116,399.919 276.488,395.066 276.331,395.066 					"/>
					<polygon style="fill:#DCC8F9;" points="281.183,399.919 281.183,395.066 276.488,395.066 281.116,399.919 					"/>
				</g>
				<path style="fill:none;stroke:#141414;stroke-width:0.9903;stroke-miterlimit:10;" d="M255.071,355.566h3.065
					c2.157,0,3.911,1.75,3.911,3.911v23.02c0,2.157-1.754,3.911-3.911,3.911h-39.332c-2.161,0-3.911-1.754-3.911-3.911v-23.02
					c0-2.161,1.75-3.911,3.911-3.911h19.523H255.071z"/>
				
					<line style="fill:none;stroke:#141414;stroke-width:0.9903;stroke-miterlimit:10;" x1="214.893" y1="380.892" x2="262.045" y2="380.892"/>
				
					<line style="fill:none;stroke:#141414;stroke-width:0.9903;stroke-miterlimit:10;" x1="235.08" y1="386.406" x2="233.441" y2="395.066"/>
				
					<line style="fill:none;stroke:#141414;stroke-width:0.9903;stroke-miterlimit:10;" x1="243.301" y1="386.406" x2="244.94" y2="395.066"/>
				
					<line style="fill:none;stroke:#141414;stroke-width:0.9904;stroke-linecap:round;stroke-miterlimit:10;" x1="229.642" y1="395.066" x2="249.056" y2="395.066"/>
				<g>
					<path style="fill:none;stroke:#141414;stroke-width:0.9903;stroke-miterlimit:10;" d="M234.314,375.149l0.73,0.552
						c0.13,0.098,0.315,0.072,0.412-0.059l1.867-2.477c0.1-0.134,0.29-0.158,0.42-0.053l1.033,0.835
						c0.182,0.147,0.455,0.032,0.477-0.201l0.504-5.368c0.027-0.291-0.397-0.615-0.671-0.512l-5.044,1.904
						c-0.219,0.083-0.258,0.376-0.068,0.513l1.078,0.775c0.135,0.097,0.163,0.288,0.06,0.419l-1.896,2.455
						c-0.1,0.128-0.077,0.314,0.052,0.413l0.726,0.558L234.314,375.149z"/>
					
						<line style="fill:none;stroke:#141414;stroke-width:0.9903;stroke-linecap:round;stroke-miterlimit:10;" x1="240.801" y1="366.591" x2="242.635" y2="364.32"/>
					
						<line style="fill:none;stroke:#141414;stroke-width:0.9903;stroke-linecap:round;stroke-miterlimit:10;" x1="238.552" y1="366.293" x2="238.329" y2="364.115"/>
					
						<line style="fill:none;stroke:#141414;stroke-width:0.9903;stroke-linecap:round;stroke-miterlimit:10;" x1="241.457" y1="368.472" x2="243.301" y2="368.472"/>
				</g>
			</g>
		</g>
		<g>
			<path style="fill:#DCC8F9;" d="M211.283,311.789c0,0.669-0.543,1.212-1.212,1.212s-1.212-0.543-1.212-1.212
				c0-0.67,0.543-1.212,1.212-1.212S211.283,311.119,211.283,311.789z"/>
			<path style="fill:#D2FDDF;" d="M213.142,311.789c0,0.669-0.543,1.212-1.212,1.212s-1.212-0.543-1.212-1.212
				c0-0.67,0.543-1.212,1.212-1.212S213.142,311.119,213.142,311.789z"/>
		</g>
		<path style="fill:#DCC8F9;" d="M247.411,436.68h-16.424c-1.663,0-3.012-1.348-3.012-3.012l0,0c0-1.663,1.348-3.012,3.012-3.012
			h16.424c1.663,0,3.012,1.348,3.012,3.012l0,0C250.422,435.332,249.074,436.68,247.411,436.68z"/>
	</g>
	<g>
		<defs>
			<path id="SVGID_00000065780215789351561640000011602410170995503276_" d="M72.441,441.936V235.27
				c0-2.349,1.904-4.254,4.254-4.254h154.363c2.349,0,4.254,1.904,4.254,4.254v206.666c0,2.349-1.904,4.254-4.254,4.254H76.694
				C74.345,446.19,72.441,444.286,72.441,441.936z"/>
		</defs>
		<clipPath id="SVGID_00000081607678977146065440000008354784998671500935_">
			<use xlink:href="#SVGID_00000065780215789351561640000011602410170995503276_"  style="overflow:visible;"/>
		</clipPath>
		
			<linearGradient id="SVGID_00000145751745364573362400000010504424078708876438_" gradientUnits="userSpaceOnUse" x1="-142.4281" y1="101.9996" x2="122.8023" y2="308.7689">
			<stop  offset="0" style="stop-color:#FFFFFF"/>
			<stop  offset="0.7176" style="stop-color:#FCFCFF;stop-opacity:0.2824"/>
			<stop  offset="1" style="stop-color:#F9F8FF;stop-opacity:0"/>
		</linearGradient>
		
			<path style="clip-path:url(#SVGID_00000081607678977146065440000008354784998671500935_);fill:url(#SVGID_00000145751745364573362400000010504424078708876438_);" d="
			M8.05,454.534c5.52-5.52,241.339-282.305,241.339-282.305l-252.923,9.653L8.05,454.534z"/>
	</g>
</g>
<g id="TEXTS">
	<g>
		<g>
			<rect x="245.217" y="122.055" style="fill:none;" width="115.825" height="19.44"/>
			<text transform="matrix(1 0 0 1 245.2172 125.7236)"><tspan x="0" y="0" style="fill:#FFFFFF; font-family:'Montserrat-Regular'; font-size:5.1676px;">Lorem ipsum dolor sit amet, consectetuer </tspan><tspan x="0" y="5.813" style="fill:#FFFFFF; font-family:'Montserrat-Regular'; font-size:5.1676px;">adip</tspan></text>
		</g>
		<g>
			
				<text transform="matrix(1 0 0 1 245.2177 101.7529)" style="fill:#D2FDDF; font-family:'PlusJakartaSansRoman-Bold'; font-size:12.6586px; letter-spacing:1;">Responsive</text>
		</g>
		<g>
			
				<text transform="matrix(1 0 0 1 245.2177 116.6591)" style="fill:#D2FDDF; font-family:'PlusJakartaSansRoman-Bold'; font-size:12.6586px; letter-spacing:1;">website design</text>
		</g>
		<g>
			
				<text transform="matrix(1 0 0 1 245.5787 65.9522)" style="fill:#FFFFFF; font-family:'PlusJakartaSansRoman-Bold'; font-size:5.1676px;">Website</text>
		</g>
		<g>
			<g>
				
					<text transform="matrix(1 0 0 1 349.5009 65.0292)" style="fill:#FFFFFF; font-family:'PlusJakartaSansRoman-Medium'; font-size:3.8757px;">About us</text>
			</g>
			<g>
				
					<text transform="matrix(1 0 0 1 381.0175 65.0292)" style="fill:#FFFFFF; font-family:'PlusJakartaSansRoman-Medium'; font-size:3.8757px;">OUR VALUES</text>
			</g>
			<text transform="matrix(1 0 0 1 422.6591 65.0292)" style="font-family:'PlusJakartaSansRoman-Medium'; font-size:3.8757px;">SHOP</text>
		</g>
		<text transform="matrix(1 0 0 1 474.4252 64.8896)" style="font-family:'PlusJakartaSansRoman-Medium'; font-size:3.1413px;">log in</text>
		
			<text transform="matrix(1 0 0 1 295.1039 153.1572)" style="fill:#DCC8F9; font-family:'PlusJakartaSansRoman-Medium'; font-size:3.8757px;">watch presentation</text>
		<text transform="matrix(1 0 0 1 260.6469 153.9648)" style="font-family:'PlusJakartaSansRoman-Medium'; font-size:3.8757px;">Buy</text>
		<g>
			<text transform="matrix(1 0 0 1 361.9125 243.4579)" style="font-family:'PlusJakartaSansRoman-Medium'; font-size:5.8136px;">/ month</text>
			<g>
				
					<text transform="matrix(1 0 0 1 342.8007 224.7197)" style="fill:#FFFFFF; font-family:'PlusJakartaSansRoman-Medium'; font-size:3.0401px;">For pro</text>
			</g>
			<text transform="matrix(1 0 0 1 338.7548 244.3818)" style="font-family:'PlusJakartaSansRoman-Medium'; font-size:12.6586px;">$15</text>
			<rect x="348.84" y="263.885" style="fill:none;" width="47.429" height="8.447"/>
			<text transform="matrix(1 0 0 1 348.8397 266.6376)"><tspan x="0" y="0" style="font-family:'Montserrat-Regular'; font-size:3.8757px;">Lorem ipsum dolor sit </tspan><tspan x="0" y="4.521" style="font-family:'Montserrat-Regular'; font-size:3.8757px;">amet</tspan></text>
			<rect x="348.84" y="277.83" style="fill:none;" width="47.429" height="8.447"/>
			<text transform="matrix(1 0 0 1 348.8397 280.582)" style="font-family:'Montserrat-Regular'; font-size:3.8757px;">Lorem ipsum dolor sit </text>
			<rect x="348.84" y="291.775" style="fill:none;" width="47.429" height="8.447"/>
			<text transform="matrix(1 0 0 1 348.8397 294.5273)"><tspan x="0" y="0" style="font-family:'Montserrat-Regular'; font-size:3.8757px;">Lorem ipsum dolor sit </tspan><tspan x="0" y="4.521" style="font-family:'Montserrat-Regular'; font-size:3.8757px;">amet</tspan></text>
			<rect x="348.84" y="305.72" style="fill:none;" width="47.429" height="8.447"/>
			<text transform="matrix(1 0 0 1 348.8397 308.4716)"><tspan x="0" y="0" style="font-family:'Montserrat-Regular'; font-size:3.8757px;">Lorem ipsum dolor sit </tspan><tspan x="0" y="4.521" style="font-family:'Montserrat-Regular'; font-size:3.8757px;">amet</tspan></text>
		</g>
		<g>
			<g>
				
					<text transform="matrix(1 0 0 1 434.3031 224.7197)" style="fill:#FFFFFF; font-family:'PlusJakartaSansRoman-Medium'; font-size:3.0401px;">Pro max</text>
			</g>
			<g>
				<g>
					
						<text transform="matrix(1 0 0 1 429.6112 244.5732)" style="font-family:'PlusJakartaSansRoman-Medium'; font-size:10.1352px;">$45</text>
				</g>
				<text transform="matrix(1 0 0 1 451.8397 243.121)" style="font-family:'PlusJakartaSansRoman-Medium'; font-size:5.8136px;">/ month</text>
			</g>
			<rect x="439.133" y="262.638" style="fill:none;" width="47.429" height="8.447"/>
			<text transform="matrix(1 0 0 1 439.1337 265.3906)"><tspan x="0" y="0" style="font-family:'Montserrat-Regular'; font-size:3.8757px;">Lorem ipsum dolor sit </tspan><tspan x="0" y="4.521" style="font-family:'Montserrat-Regular'; font-size:3.8757px;">amet</tspan></text>
		</g>
		<g>
			<g>
				
					<text transform="matrix(0.9323 0 0 1 257.5009 224.7197)" style="fill:#FFFFFF; font-family:'PlusJakartaSansRoman-Medium'; font-size:3.0401px;">Newbe</text>
			</g>
			<g>
				<text transform="matrix(1 0 0 1 253.1273 243.8476)" style="font-family:'PlusJakartaSansRoman-Medium'; font-size:10.1352px;">$5</text>
				<text transform="matrix(1 0 0 1 267.4281 243.1093)" style="font-family:'PlusJakartaSansRoman-Medium'; font-size:4.6547px;">/ month</text>
			</g>
			<rect x="261.093" y="260.032" style="fill:none;" width="47.429" height="8.447"/>
			<text transform="matrix(1 0 0 1 261.0936 262.7841)"><tspan x="0" y="0" style="font-family:'Montserrat-Regular'; font-size:3.8757px;">Lorem ipsum dolor sit </tspan><tspan x="0" y="4.521" style="font-family:'Montserrat-Regular'; font-size:3.8757px;">amet</tspan></text>
			<rect x="261.093" y="273.977" style="fill:none;" width="47.429" height="8.447"/>
			<text transform="matrix(1 0 0 1 261.0936 276.7294)" style="font-family:'Montserrat-Regular'; font-size:3.8757px;">Lorem ipsum dolor sit </text>
		</g>
	</g>
	<g>
		<text transform="matrix(1 0 0 1 87.6512 337.7161)" style="font-family:'PlusJakartaSansRoman-Bold'; font-size:5.8896px;">Choose the right plan</text>
		<g>
			<text transform="matrix(1 0 0 1 103.3661 390.1698)" style="font-family:'PlusJakartaSansRoman-Medium'; font-size:3.1049px;">/ month</text>
			<g>
				
					<text transform="matrix(1 0 0 1 93.1571 381.0337)" style="fill:#FFFFFF; font-family:'PlusJakartaSansRoman-Medium'; font-size:1.6237px;">For pro</text>
			</g>
			<text transform="matrix(1 0 0 1 90.996 390.6629)" style="font-family:'PlusJakartaSansRoman-Medium'; font-size:6.7607px;">$15</text>
			<rect x="137.822" y="381.552" style="fill:none;" width="25.331" height="4.511"/>
			<text transform="matrix(1 0 0 1 137.8231 383.0227)"><tspan x="0" y="0" style="font-family:'Montserrat-Regular'; font-size:2.0699px;">Lorem ipsum dolor sit </tspan><tspan x="0" y="2.415" style="font-family:'Montserrat-Regular'; font-size:2.0699px;">amet</tspan></text>
			<rect x="137.822" y="389" style="fill:none;" width="25.331" height="4.511"/>
			<text transform="matrix(1 0 0 1 137.8231 390.469)" style="font-family:'Montserrat-Regular'; font-size:2.0699px;">Lorem ipsum dolor sit </text>
			<rect x="180.664" y="381.552" style="fill:none;" width="11.614" height="4.511"/>
			<text transform="matrix(1 0 0 1 180.6639 383.0219)"><tspan x="0" y="0" style="font-family:'Montserrat-Regular'; font-size:2.0699px;">Lorem </tspan><tspan x="0" y="2.415" style="font-family:'Montserrat-Regular'; font-size:2.0699px;">ipsum </tspan></text>
			<rect x="180.664" y="389" style="fill:none;" width="10.422" height="4.511"/>
			<text transform="matrix(1 0 0 1 180.6639 390.4692)"><tspan x="0" y="0" style="font-family:'Montserrat-Regular'; font-size:2.0699px;">Lorem </tspan><tspan x="0" y="2.415" style="font-family:'Montserrat-Regular'; font-size:2.0699px;">ipsum </tspan></text>
		</g>
		<g>
			<g>
				
					<text transform="matrix(0.9323 0 0 1 94.2117 351.8456)" style="fill:#FFFFFF; font-family:'PlusJakartaSansRoman-Medium'; font-size:1.6237px;">Newbe</text>
			</g>
			<text transform="matrix(1 0 0 1 91.8757 361.0578)" style="font-family:'PlusJakartaSansRoman-Medium'; font-size:5.4129px;">$5</text>
			<text transform="matrix(1 0 0 1 99.5154 360.6632)" style="font-family:'PlusJakartaSansRoman-Medium'; font-size:2.4859px;">/ month</text>
			<rect x="137.822" y="352.082" style="fill:none;" width="25.331" height="4.511"/>
			<text transform="matrix(1 0 0 1 137.8229 353.5521)"><tspan x="0" y="0" style="font-family:'Montserrat-Regular'; font-size:2.0699px;">Lorem ipsum dolor sit </tspan><tspan x="0" y="2.415" style="font-family:'Montserrat-Regular'; font-size:2.0699px;">amet</tspan></text>
			<rect x="137.822" y="359.53" style="fill:none;" width="25.331" height="4.511"/>
			<text transform="matrix(1 0 0 1 137.8229 361.0003)" style="font-family:'Montserrat-Regular'; font-size:2.0699px;">Lorem ipsum dolor sit </text>
		</g>
		<g>
			<g>
				
					<text transform="matrix(0.9323 0 0 1 94.2117 409.7765)" style="fill:#FFFFFF; font-family:'PlusJakartaSansRoman-Medium'; font-size:1.6237px;">Newbe</text>
			</g>
			<text transform="matrix(1 0 0 1 91.8757 418.9886)" style="font-family:'PlusJakartaSansRoman-Medium'; font-size:5.4129px;">$45</text>
			<text transform="matrix(1 0 0 1 103.2076 418.594)" style="font-family:'PlusJakartaSansRoman-Medium'; font-size:2.4859px;">/ month</text>
			<rect x="137.822" y="410.013" style="fill:none;" width="25.331" height="4.511"/>
			<text transform="matrix(1 0 0 1 137.8229 411.4829)"><tspan x="0" y="0" style="font-family:'Montserrat-Regular'; font-size:2.0699px;">Lorem ipsum dolor sit </tspan><tspan x="0" y="2.415" style="font-family:'Montserrat-Regular'; font-size:2.0699px;">amet</tspan></text>
			<rect x="137.822" y="417.461" style="fill:none;" width="25.331" height="4.511"/>
			<text transform="matrix(1 0 0 1 137.8229 418.9312)" style="font-family:'Montserrat-Regular'; font-size:2.0699px;">Lorem ipsum dolor sit </text>
			<rect x="180.664" y="410.013" style="fill:none;" width="10.422" height="4.323"/>
			<text transform="matrix(1 0 0 1 180.6637 411.4829)"><tspan x="0" y="0" style="font-family:'Montserrat-Regular'; font-size:2.0699px;">Lorem </tspan><tspan x="0" y="2.415" style="font-family:'Montserrat-Regular'; font-size:2.0699px;">ipsum </tspan></text>
			<rect x="180.664" y="417.461" style="fill:none;" width="10.422" height="4.511"/>
			<text transform="matrix(1 0 0 1 180.6637 418.9302)"><tspan x="0" y="0" style="font-family:'Montserrat-Regular'; font-size:2.0699px;">Lorem </tspan><tspan x="0" y="2.415" style="font-family:'Montserrat-Regular'; font-size:2.0699px;">ipsum </tspan></text>
		</g>
		<g>
			<g>
				<rect x="87.651" y="289.29" style="fill:none;" width="65.649" height="11.019"/>
				<text transform="matrix(1 0 0 1 87.6512 291.3684)"><tspan x="0" y="0" style="fill:#FFFFFF; font-family:'Montserrat-Regular'; font-size:2.929px;">Lorem ipsum dolor sit amet, consectetuer </tspan><tspan x="0" y="3.296" style="fill:#FFFFFF; font-family:'Montserrat-Regular'; font-size:2.929px;">adip</tspan></text>
			</g>
			<g>
				
					<text transform="matrix(1 0 0 1 87.6512 277.7825)" style="fill:#D2FDDF; font-family:'PlusJakartaSansRoman-Bold'; font-size:7.1749px;">Responsive</text>
			</g>
			<g>
				
					<text transform="matrix(1 0 0 1 87.6512 286.2307)" style="fill:#D2FDDF; font-family:'PlusJakartaSansRoman-Bold'; font-size:7.1749px;">website design</text>
			</g>
			<g>
				
					<text transform="matrix(1 0 0 1 87.6515 253.5082)" style="fill:#FFFFFF; font-family:'PlusJakartaSansRoman-Bold'; font-size:2.929px;">Website</text>
			</g>
			
				<text transform="matrix(1 0 0 1 115.9276 306.9192)" style="fill:#DCC8F9; font-family:'PlusJakartaSansRoman-Medium'; font-size:2.1967px;">watch presentation</text>
			<text transform="matrix(1 0 0 1 96.3973 307.3763)" style="font-family:'PlusJakartaSansRoman-Medium'; font-size:2.1967px;">Buy</text>
			<text transform="matrix(1 0 0 1 210.1308 252.9061)" style="font-family:'PlusJakartaSansRoman-Medium'; font-size:1.9336px;">log in</text>
		</g>
	</g>
	<g>
		<text transform="matrix(1 0 0 1 218.1499 313.001)" style="font-family:'PlusJakartaSansRoman-Bold'; font-size:2.2086px;">Website</text>
		<text transform="matrix(1 0 0 1 267.4279 313.0006)" style="font-family:'PlusJakartaSansRoman-Medium'; font-size:2.408px;">log in</text>
		<g>
			<text transform="matrix(1 0 0 1 218.1502 324.662)" style="font-family:'PlusJakartaSansRoman-Bold'; font-size:6.2234px;">Responsive</text>
		</g>
		<g>
			<text transform="matrix(1 0 0 1 211.2825 331.9892)" style="font-family:'PlusJakartaSansRoman-Bold'; font-size:6.2234px;">website design</text>
		</g>
		<text transform="matrix(1 0 0 1 236.7207 434.569)" style="font-family:'PlusJakartaSansRoman-Medium'; font-size:2.1967px;">Buy</text>
		<g>
			<rect x="206.374" y="419.51" style="fill:none;" width="65.649" height="11.019"/>
			<text transform="matrix(1 0 0 1 207.2909 421.5884)"><tspan x="0" y="0" style="fill:#FFFFFF; font-family:'Montserrat-Regular'; font-size:2.929px;">Lorem ipsum dolor sit amet, consectetuver </tspan><tspan x="28.761" y="3.296" style="fill:#FFFFFF; font-family:'Montserrat-Regular'; font-size:2.929px;">adip</tspan></text>
		</g>
	</g>
	<g>
		<g>
			<g>
				<rect x="454.092" y="346.878" style="fill:none;" width="98.358" height="16.508"/>
				<text transform="matrix(1 0 0 1 454.0924 349.9939)"><tspan x="0" y="0" style="fill:#FFFFFF; font-family:'Montserrat-Regular'; font-size:4.3883px;">Lorem ipsum dolor sit amet, consectetuer </tspan><tspan x="0" y="4.938" style="fill:#FFFFFF; font-family:'Montserrat-Regular'; font-size:4.3883px;">adip</tspan></text>
			</g>
			<g>
				
					<text transform="matrix(1 0 0 1 454.0924 329.6375)" style="fill:#D2FDDF; font-family:'PlusJakartaSansRoman-Bold'; font-size:10.7497px; letter-spacing:1;">Responsive</text>
			</g>
			<g>
				
					<text transform="matrix(1 0 0 1 454.0924 342.2957)" style="fill:#D2FDDF; font-family:'PlusJakartaSansRoman-Bold'; font-size:10.7497px; letter-spacing:1;">website design</text>
			</g>
			<g>
				
					<text transform="matrix(1 0 0 1 453.7457 300.1863)" style="fill:#FFFFFF; font-family:'PlusJakartaSansRoman-Bold'; font-size:4.3883px;">Website</text>
			</g>
			<g>
				<g>
					
						<text transform="matrix(1 0 0 1 542.65 298.4519)" style="fill:#FFFFFF; font-family:'PlusJakartaSansRoman-Medium'; font-size:3.2912px;">About us</text>
				</g>
				<g>
					
						<text transform="matrix(1 0 0 1 569.4137 298.4519)" style="fill:#FFFFFF; font-family:'PlusJakartaSansRoman-Medium'; font-size:3.2912px;">OUR VALUES</text>
				</g>
				<text transform="matrix(1 0 0 1 604.775 298.4519)" style="font-family:'PlusJakartaSansRoman-Medium'; font-size:3.2912px;">SHOP</text>
			</g>
			
				<text transform="matrix(1 0 0 1 496.4557 373.2898)" style="fill:#DCC8F9; font-family:'PlusJakartaSansRoman-Medium'; font-size:3.2912px;">watch presentation</text>
			<text transform="matrix(1 0 0 1 467.1949 373.9754)" style="font-family:'PlusJakartaSansRoman-Medium'; font-size:3.2912px;">Buy</text>
			<g>
				
					<text transform="matrix(1 0 0 1 536.9596 434.0613)" style="fill:#FFFFFF; font-family:'PlusJakartaSansRoman-Medium'; font-size:2.5817px;">For pro</text>
			</g>
			<g>
				
					<text transform="matrix(1 0 0 1 614.6637 434.0613)" style="fill:#FFFFFF; font-family:'PlusJakartaSansRoman-Medium'; font-size:2.5817px;">Pro max</text>
			</g>
			<g>
				
					<text transform="matrix(0.9323 0 0 1 464.524 434.0613)" style="fill:#FFFFFF; font-family:'PlusJakartaSansRoman-Medium'; font-size:2.5817px;">Newbe</text>
			</g>
		</g>
		<text transform="matrix(1 0 0 1 648.735 299.3339)" style="font-family:'PlusJakartaSansRoman-Medium'; font-size:2.6676px;">log in</text>
	</g>
</g>
</svg>
